# xmcd
#
# Track frame offsets: 
#        182
#        19812
#        39832
#        51925
#        73865
#        95310
#        115227
#        123290
#        134787
#        155285
#
# Disc length: 2367 seconds
#
# Revision: 0
# Processed by: cddbd v1.5.2PL0 Copyright (c) Steve Scherf et al.
# Submitted via: ExactAudioCopy v0.95b4
#
DISCID=85093d0a
DTITLE=Gildor Roy - Tard le soir sur la route
DYEAR=1900
DGENRE=Country
TTITLE0=Le train qui siffle
TTITLE1=Je roule
TTITLE2=Tu m'travailles
TTITLE3=Suis je en train de te perdre 
TTITLE4=Je parle a la lune
TTITLE5=Donne moi un bec
TTITLE6=L'ami de la nature
TTITLE7=Rent a wreck
TTITLE8=hello Cherie
TTITLE9=Cuando el sol
EXTD=
EXTT0=
EXTT1=
EXTT2=
EXTT3=
EXTT4=
EXTT5=
EXTT6=
EXTT7=
EXTT8=
EXTT9=
PLAYORDER=
